<svg xmlns="http://www.w3.org/2000/svg" height="1200" width="1600" version="1.1" xmlns:xlink="http://www.w3.org/1999/xlink" xmlns:svgjs="http://svgjs.com/svgjs"><rect fill="#ffffff" width="1600" height="1200"></rect><g><path d="M311.4 563.3C400.15 563.3 472.1 478.68 472.1 374.3 472.1 269.92 400.15 185.3 311.4 185.3 222.65 185.3 150.7 269.92 150.7 374.3 150.7 478.68 222.65 563.3 311.4 563.3Z" fill="#ff4f32" opacity="1" stroke-width="4" stroke="none"></path><path d="M311.4 513.5C376.79 513.5 429.8 451.18 429.8 374.3 429.8 297.42 376.79 235.1 311.4 235.1 246.01 235.1 193 297.42 193 374.3 193 451.18 246.01 513.5 311.4 513.5Z" fill="#efdcd7" opacity="1" stroke-width="4" stroke="none"></path><path d="M377.2 258.6L203.6 432.1C208.7 445.3 215.8 457.7 224.5 468.9L404.8 288.8C397.2 277.4 387.9 267.2 377.2 258.6Z" fill="#ffffff" opacity="1" stroke-width="4" stroke="none"></path><path d="M413.9 304.7L236.5 482.1C239.8 485.2 243.2 488.2 246.7 490.9L419.6 318C417.9 313.5 416 309 413.9 304.7Z" fill="#ffffff" opacity="1" stroke-width="4" stroke="none"></path><path d="M311.4 513.5C376.79 513.5 429.8 451.18 429.8 374.3 429.8 297.42 376.79 235.1 311.4 235.1 246.01 235.1 193 297.42 193 374.3 193 451.18 246.01 513.5 311.4 513.5Z" stroke="#230500" stroke-width="4" stroke-linecap="round" stroke-linejoin="round" opacity="1" fill="none"></path></g><g><path d="M255.7 719.4L295 612.8C297 607.4 303 604.7 308.4 606.7 311.2 607.8 313.4 610 314.5 612.8L353.9 719.5" stroke="#1b1b1b" stroke-width="4" stroke-linecap="round" stroke-linejoin="round" opacity="1" fill="none"></path><path d="M386.6 678.8H223V853.4H386.6V678.8Z" fill="#ffc930" opacity="1" stroke-width="4" stroke="none"></path><path d="M353.9 711.6H255.7V820.7H353.9V711.6Z" fill="#ffffff" opacity="1" stroke-width="4" stroke="none"></path></g><g><path d="M728.81 629.91L723.38 626.28C724.32 624.71 725.42 623.29 726.53 621.87 730.15 617.62 736.06 613.28 742.44 608.71 752.37 601.54 762.62 594.14 765.29 585.78 767.97 577.27 767.34 561.36 763.48 536.93V536.77H786.65C795.63 536.77 802.96 543.78 803.35 552.77L804.77 585.55 818.95 547.65C821.4 541.18 827.7 536.85 834.56 536.85H850V537.01C850.08 541.66 850.08 546.23 850 550.64 849.21 575.93 847.01 601.38 843.38 626.36L834.71 629.59 728.81 629.91Z" fill="#ffc930" opacity="1" stroke-width="4" stroke="none"></path><path d="M718.73 643.7V643.54C718.73 643.46 717.7 635.42 723.38 626.21L723.45 626.13H843.46V626.44C841.88 637.24 840.54 643.46 840.54 643.54V643.7H718.73Z" fill="#211800" opacity="1" stroke-width="4" stroke="none"></path><path d="M763.64 585L781.76 591.85" stroke="#211800" stroke-width="4" stroke-linecap="round" stroke-linejoin="round" opacity="1" fill="none"></path><path d="M756.78 595.95L771.91 608.56" stroke="#211800" stroke-width="4" stroke-linecap="round" stroke-linejoin="round" opacity="1" fill="none"></path></g><g><path d="M995.97 630.46L990.56 626.85C991.5 625.28 992.6 623.87 993.69 622.46 997.3 618.22 1003.19 613.91 1009.55 609.35 1019.43 602.21 1029.64 594.84 1032.3 586.52 1034.97 578.04 1034.34 562.19 1030.5 537.86V537.71H1053.57C1062.52 537.71 1069.82 544.69 1070.21 553.64L1071.62 586.28 1085.75 548.54C1088.18 542.1 1094.46 537.79 1101.28 537.79H1116.66V537.94C1116.74 542.57 1116.74 547.12 1116.66 551.52 1115.88 576.71 1113.68 602.06 1110.07 626.93L1101.44 630.15 995.97 630.46Z" fill="#ffa0dc" opacity="1" stroke-width="4" stroke="none"></path><path d="M985.93 644.2V644.04C985.93 643.96 984.91 635.96 990.56 626.78L990.63 626.7H1110.15V627.01C1108.58 637.76 1107.25 643.96 1107.25 644.04V644.2H985.93Z" fill="#91005c" opacity="1" stroke-width="4" stroke="none"></path><path d="M1030.66 585.73L1048.71 592.56" stroke="#91005c" stroke-width="4" stroke-linecap="round" stroke-linejoin="round" opacity="1" fill="none"></path><path d="M1023.83 596.64L1038.9 609.2" stroke="#91005c" stroke-width="4" stroke-linecap="round" stroke-linejoin="round" opacity="1" fill="none"></path></g><g><path d="M1262.51 672.46C1270.22 672.46 1276.56 665.73 1276.56 657.51V657.11C1276.56 648.9 1270.22 642.17 1262.51 642.17L576.91 642.17C569.21 642.17 562.87 648.9 562.87 657.11V657.51C562.87 665.73 569.21 672.46 576.91 672.46L1262.51 672.46Z" fill="#efdcd7" opacity="1" stroke-width="4" stroke="none"></path></g><g><path d="M770.15 255.25H1069.45C1102.25 255.25 1128.75 281.85 1128.75 314.55 1128.75 347.35 1102.15 373.85 1069.45 373.85H770.15C737.35 373.85 710.85 347.25 710.85 314.55 710.75 281.85 737.35 255.25 770.15 255.25Z" fill="#61ccff" opacity="1" stroke-width="4" stroke="none"></path><path d="M800.35 297.95H826.55C828.45 297.95 829.95 299.45 829.95 301.35V323.55C829.95 325.45 828.45 326.95 826.55 326.95H800.35C798.45 326.95 796.95 325.45 796.95 323.55V301.35C796.95 299.45 798.45 297.95 800.35 297.95Z" fill="#c3c3c3" opacity="1" stroke-width="4" stroke="none"></path><path d="M821.75 266.45H805.75V357.45H821.75V266.45Z" fill="#efdcd7" opacity="1" stroke-width="4" stroke="none"></path><path d="M801.55 349.05H826.05C832.25 349.05 837.25 354.05 837.25 360.25V372.75C837.25 378.95 832.25 383.95 826.05 383.95H801.55C795.35 383.95 790.35 378.95 790.35 372.75V360.25C790.25 354.05 795.35 349.05 801.55 349.05Z" fill="#ffffff" opacity="1" stroke-width="4" stroke="none"></path><path d="M801.55 240.05H826.05C832.25 240.05 837.25 245.05 837.25 251.25V263.75C837.25 269.95 832.25 274.95 826.05 274.95H801.55C795.35 274.95 790.35 269.95 790.35 263.75V251.25C790.25 245.05 795.35 240.05 801.55 240.05Z" fill="#ffffff" opacity="1" stroke-width="4" stroke="none"></path><path d="M1012.35 297.95H1038.55C1040.45 297.95 1041.95 299.45 1041.95 301.35V323.55C1041.95 325.45 1040.45 326.95 1038.55 326.95H1012.35C1010.45 326.95 1008.95 325.45 1008.95 323.55V301.35C1008.95 299.45 1010.45 297.95 1012.35 297.95Z" fill="#c3c3c3" opacity="1" stroke-width="4" stroke="none"></path><path d="M1033.75 266.45H1017.75V357.45H1033.75V266.45Z" fill="#efdcd7" opacity="1" stroke-width="4" stroke="none"></path><path d="M1013.55 349.05H1038.05C1044.25 349.05 1049.25 354.05 1049.25 360.25V372.75C1049.25 378.95 1044.25 383.95 1038.05 383.95H1013.55C1007.35 383.95 1002.35 378.95 1002.35 372.75V360.25C1002.25 354.05 1007.35 349.05 1013.55 349.05Z" fill="#ffffff" opacity="1" stroke-width="4" stroke="none"></path><path d="M1013.55 240.05H1038.05C1044.25 240.05 1049.25 245.05 1049.25 251.25V263.75C1049.25 269.95 1044.25 274.95 1038.05 274.95H1013.55C1007.35 274.95 1002.35 269.95 1002.35 263.75V251.25C1002.25 245.05 1007.35 240.05 1013.55 240.05Z" fill="#ffffff" opacity="1" stroke-width="4" stroke="none"></path></g><g><path d="M210.82 1051.4C204.56 1051.4 199.28 1046.63 198.69 1040.36L194.81 1002.96H226.84L222.96 1040.36C222.36 1046.63 217.09 1051.4 210.82 1051.4Z" fill="#d7d7d7" opacity="1" stroke-width="4" stroke="none"></path><path d="M398.12 1051.4C391.85 1051.4 386.58 1046.63 385.98 1040.36L382.1 1002.96H414.13L410.25 1040.36C409.66 1046.63 404.38 1051.4 398.12 1051.4Z" fill="#d7d7d7" opacity="1" stroke-width="4" stroke="none"></path><path d="M194.81 1002.96L196.7 1021.56H224.95L226.84 1002.96H194.81Z" fill="#d7d7d7" opacity="1" stroke-width="4" stroke="none"></path><path d="M414.13 1002.96H382.1L383.99 1021.56H412.24L414.13 1002.96Z" fill="#d7d7d7" opacity="1" stroke-width="4" stroke="none"></path><path d="M435.22 994.11H173.72C164.37 994.11 156.71 986.45 156.71 977.1V885.59C156.71 876.24 164.37 868.58 173.72 868.58H435.22C444.57 868.58 452.23 876.24 452.23 885.59V977.1C452.23 986.55 444.57 994.11 435.22 994.11Z" fill="#ffffff" opacity="1" stroke-width="4" stroke="none"></path><path d="M156.71 931.64V885.59C156.71 876.24 164.37 868.58 173.72 868.58H435.22C444.57 868.58 452.23 876.24 452.23 885.59V894.84L156.71 931.64Z" fill="#d7d7d7" opacity="0.2" stroke-width="4" stroke="none"></path><path d="M438.1 852.37H170.84C154.03 852.37 140.4 865.99 140.4 882.8V979.78C140.4 996.59 154.03 1010.22 170.84 1010.22H438.1C454.91 1010.22 468.54 996.59 468.54 979.78V882.8C468.54 865.99 454.91 852.37 438.1 852.37ZM443.67 973.92C443.67 980.58 438.3 985.95 431.64 985.95H177.3C170.64 985.95 165.27 980.58 165.27 973.92V888.67C165.27 882.01 170.64 876.64 177.3 876.64H431.74C438.4 876.64 443.77 882.01 443.77 888.67V973.92H443.67Z" fill="#61ccff" opacity="1" stroke-width="4" stroke="none"></path><path d="M352.96 986.05H255.88C243.55 986.05 233.6 976.4 233.6 964.37 233.6 952.43 243.55 942.68 255.88 942.68H352.96C365.29 942.68 375.24 952.33 375.24 964.37 375.24 976.3 365.19 986.05 352.96 986.05Z" fill="#ffffff" opacity="1" stroke-width="4" stroke="none"></path><path d="M352.96 942.68H255.88C243.55 942.68 233.6 933.03 233.6 921 233.6 909.06 243.55 899.32 255.88 899.32H352.96C365.29 899.32 375.24 908.96 375.24 921 375.24 933.03 365.19 942.68 352.96 942.68Z" fill="#ffffff" opacity="1" stroke-width="4" stroke="none"></path><path d="M250.11 942.68H358.83" stroke="#202020" stroke-width="4" stroke-linecap="round" stroke-linejoin="round" opacity="1" fill="none"></path></g><g><path d="M1263.54 483.11C1271.24 483.11 1277.58 476.38 1277.58 468.17V467.76C1277.58 459.55 1271.24 452.82 1263.54 452.82L577.94 452.82C570.23 452.82 563.89 459.55 563.89 467.76V468.17C563.89 476.38 570.23 483.11 577.94 483.11L1263.54 483.11Z" fill="#efdcd7" opacity="1" stroke-width="4" stroke="none"></path></g><g><path d="M1277.03 656.98H562.44V1051.3H1277.03V656.98Z" fill="#efdcd7" opacity="1" stroke-width="4" stroke="none"></path></g><g><path d="M1281.89 811.73H1312.85C1326.43 811.73 1337.36 821.69 1337.36 834.06V870.59C1337.36 882.96 1326.43 892.92 1312.85 892.92H1281.89C1268.31 892.92 1257.38 882.96 1257.38 870.59V834.06C1257.55 821.69 1268.47 811.73 1281.89 811.73Z" stroke="#ffc930" stroke-width="4" stroke-linecap="round" stroke-linejoin="round" opacity="1" fill="none"></path><path d="M1189.65 846.74H1404.75C1425.62 846.74 1442.51 862.14 1442.51 881.15V1018.35C1442.51 1037.36 1425.62 1052.76 1404.75 1052.76H1189.65C1168.79 1052.76 1151.9 1037.36 1151.9 1018.35V881.15C1151.9 862.14 1168.79 846.74 1189.65 846.74Z" fill="#61ccff" opacity="1" stroke-width="4" stroke="none"></path><path d="M1152.07 955.86H1442.51V970.95H1152.07V955.86Z" fill="#1a1a1a" opacity="0.2" stroke-width="4" stroke="none"></path><path d="M1278.58 955.86H1316.33C1317.49 955.86 1318.32 956.62 1318.32 957.67V972.16C1318.32 981.97 1309.71 989.82 1298.94 989.82H1295.96C1285.2 989.82 1276.59 981.97 1276.59 972.16V957.67C1276.59 956.62 1277.42 955.86 1278.58 955.86Z" fill="#ffc930" opacity="1" stroke-width="4" stroke="none"></path><path d="M1152.4 955.86H1442.51" stroke="#1a1a1a" stroke-width="4" stroke-linejoin="round" opacity="1" fill="none"></path></g><g><path d="M1398.32 455.68C1398.32 516.51 1333.45 586.77 1307.74 586.77 1282.03 586.77 1217.2 516.51 1217.2 455.68 1218.1 405.66 1259.38 365.85 1309.4 366.75 1358.14 367.63 1397.44 406.94 1398.32 455.68Z" fill="#ff4f32" opacity="1" stroke-width="4" stroke="none"></path><path d="M1307.74 484.07C1323.43 484.07 1336.14 471.36 1336.14 455.68 1336.14 440 1323.43 427.29 1307.74 427.29 1292.06 427.29 1279.35 440 1279.35 455.68 1279.35 471.36 1292.06 484.07 1307.74 484.07Z" fill="#bababa" opacity="1" stroke-width="4" stroke="none"></path></g><g><path d="M1283.78 958.6H1064.01V1051.77H1283.78V958.6Z" fill="#ffffff" opacity="1" stroke-width="4" stroke="none"></path><path d="M1283.78 1005.18L1064.11 978.72V958.6H1283.78V1005.18Z" fill="#636363" opacity="0.2" stroke-width="4" stroke="none"></path><path d="M1295 918.8H1052.69V970.99H1295V918.8Z" fill="#ffffff" opacity="1" stroke-width="4" stroke="none"></path><path d="M1063.91 970.99H1283.78" stroke="#393939" stroke-width="4" stroke-linecap="round" stroke-linejoin="round" opacity="1" fill="none"></path></g><g><path d="M510.3 351.1L509.7 302.4C509.7 301.6 509.7 300.9 509.6 300.1 509.5 299.3 509.5 298.4 509.5 297.4 509 279.3 508.2 249.1 528.4 235.6 537.1 229.8 548.1 226.8 560.4 226.8 565.3 226.8 570.2 227.3 575 228.1 590.5 230.3 602.5 239.2 608.6 252.9 611.6 260.6 612.2 272.3 612.6 281.7 612.8 283.2 612.8 284.7 612.8 286.3 613.7 286.5 617.9 287.7 620.1 289.8 620.9 290.5 621.5 291.4 621.8 292.5 622.1 296.4 616.9 301.7 615.7 302.6 618.6 321.4 616.4 332.4 608.5 339.3 604 343.3 596.2 345.7 587.9 345.7 583.8 345.7 579.7 345.2 575.7 344.2L575.9 351.3 510.3 351.1Z" fill="#e59763" opacity="1" stroke-width="4" stroke="none"></path><path d="M561.5 338.6C561.5 338.6 567.6 341.9 575.7 344.2L575.9 351.3 573 356.4 561.5 338.6Z" fill="#030202" opacity="0.2" stroke-width="4" stroke="none"></path><path d="M522.7 1002.8C521.5 984.6 521.6 965.8 523.1 947.7L613.7 947C613.2 955.8 611.6 966.2 611.8 975.2 611.8 975.2 580.6 975.7 580.2 975.8 576.8 976.2 573.7 977.9 571.6 980.5 569.5 983.2 568.5 986.5 568.9 989.9L570.4 1002.7 522.7 1002.8Z" fill="#e59763" opacity="1" stroke-width="4" stroke="none"></path><path d="M382 1003.1V1002.7C382.2 984.5 383.2 966.1 387 948.3V948.2L387.3 947.9 483.4 948.2C480.9 957.1 477.5 966.5 475.3 975.2L443.9 975.6C443.8 975.6 443.7 975.6 443.6 975.6 443.2 975.6 442.9 975.7 442.5 975.8 439.1 976.2 436 977.9 433.9 980.5 431.8 983.2 430.8 986.5 431.2 989.9L432.6 1003.4 382 1003.1Z" fill="#e59763" opacity="1" stroke-width="4" stroke="none"></path><path d="M711.1 457.8C723.4 453.4 736.8 449.1 752 444.7 775.1 438.2 790.2 436.8 798.8 436.8 799.1 436.8 799.5 436.8 799.8 436.8 802.5 436.8 805.2 437 807.8 437.4 809.3 437.7 810.5 438.8 811 440.2 811.5 442 810.3 443.8 809.6 444.8 813.6 445.1 836 446.8 840.7 454.4 841.7 455.9 841.9 457.8 841.3 459.5 844.2 462.4 844.5 464.9 844.3 466.5 844 468.8 842.3 470.8 839.2 472.4 839.6 474.8 839.2 477.2 837.8 479.3 836 481.5 833.3 482.8 830.5 482.9 827.2 483.2 822.9 483.4 818 483.4 812.7 483.4 807.2 483.3 803.6 483.1 803.2 483.1 803 483.6 803.4 483.8 810.1 487.3 823 494.6 824.8 499.9 825.2 500.7 825.1 501.6 824.6 502.3 824 503.5 822.3 504.2 820.1 504.2 812.5 504.2 797.6 498 792.7 496 792.1 495.7 791.6 495.5 791.4 495.5L791.1 495.6C784.8 498.1 772.7 502.4 762.7 502.4H762.4C760.5 502.4 758.5 502.2 756.6 501.8 749.8 507.7 743.1 512.7 735.6 517.6L711.1 457.8Z" fill="#e59763" opacity="1" stroke-width="4" stroke="none"></path><path d="M473.5 571.1C473.5 571.1 473.4 571.1 473.3 571 467.4 568.6 437.5 555 430.1 522.5 424 496.2 433.4 430.5 461.2 391.5 475 372.2 491.5 361.5 510.3 359.5 510.1 355.6 510.1 347.4 510.1 347.3V347.1H575.9L576.6 359.5C607.4 362.6 634 383.6 653.8 420.4 660.6 433.1 675.4 458.4 680.2 466.7 680.9 467.9 681.4 468.8 681.7 469.2 682.1 469.1 682.7 468.8 683.5 468.4 687.7 466.6 697.7 462.5 711.5 457.6L712.1 457.4 737.3 516.6 733.2 519.7C719.9 528.5 692.9 543.1 662.1 543.1 661.9 543.1 661.7 543.1 661.6 543.1 660.6 543.1 659.7 543 658.7 542.9 645.5 542.4 633.2 536.2 622.1 524.5 616.5 518.6 611.4 511.5 607.4 503.9L602.5 545 485.6 546.1 473.9 571 473.5 571.1Z" fill="#61ccff" opacity="1" stroke-width="4" stroke="none"></path><path d="M570.7 545.2L592.7 473.9 607.4 503.9 602.5 545 570.7 545.2Z" fill="#519cbf" opacity="0.2" stroke-width="4" stroke="none"></path><path d="M473.5 571.1C463.9 567.1 455.3 561.5 448 554.2L447.8 554 448 553.9C448.1 553.8 457.9 547.7 462.8 539.9 467.5 532.4 468.7 522.7 469.7 514.2 470.9 504.2 472.5 495.6 478.4 491.8L485.8 545.6 473.9 571 473.5 571.1Z" fill="#519cbf" opacity="0.2" stroke-width="4" stroke="none"></path><path d="M383.5 1034.8C382.4 1024.1 381.8 1013.4 381.9 1002.8V1002.4H431.9C431.7 1002.4 430.6 991.3 430.5 990.5 429.5 982.5 435.4 974.9 443.8 974.9L475.3 975C473.1 987.6 474.3 996.5 478.8 1001.7 484.3 1007.9 490.4 1013.6 496.9 1018.7L497.5 1019.2C503.7 1024.4 508.7 1028.4 511.8 1034.5L383.5 1034.8Z" fill="#ffffff" opacity="1" stroke-width="4" stroke="none"></path><path d="M385.6 1050.4C385.6 1050.4 383.4 1043 383.4 1034.2H511.7C511.7 1034.2 515.6 1040.3 515.6 1046.6 515.6 1048.3 515.1 1050.6 515.1 1050.6L385.6 1050.4Z" fill="#636363" opacity="1" stroke-width="4" stroke="none"></path><path d="M602.6 544.6L548.6 544.5 484.7 544.4 484.6 544.5C450.1 591.6 451.5 633.5 453.6 697V698.5C454.2 717.5 454.9 739 454.7 763 454.5 785.7 444.1 805.2 430.9 829.8L430.1 831.3C417.5 855.1 401.9 884.7 391.8 925.6 389.9 933 388.1 940.9 386.8 948.5L483.3 948.6C483.3 948.6 497.5 912.3 506.4 892.1L507.7 889C522.5 855.1 539.2 816.7 547.6 782.8 548.6 788.7 549.3 794.5 549.4 800 550 823.5 546.3 836.7 541.1 855L540.7 856.4C533.9 878.8 528.8 902 525.6 925.3 524.5 932.1 522.9 948.6 523 948.6L613.8 948.5C615.8 931.8 619.6 911.8 623.1 894.6L623.7 891.2C629.1 863.6 635.1 832.2 637.7 801.2 649.3 660.6 603.1 545.6 602.6 544.6Z" fill="#ffa0dc" opacity="1" stroke-width="4" stroke="none"></path><path d="M531 832.3C528.1 796.4 521.7 767.8 516.5 744.9 508.6 710 500.1 691.2 512.6 670.2L534 735 548.1 780.6C544.6 795.5 539.3 812.2 531.5 832.3H531V832.3Z" fill="#91005c" opacity="0.2" stroke-width="4" stroke="none"></path><path d="M512.4 667.9C523.3 710.1 541.1 747.7 547.4 780.6" stroke="#91005c" stroke-width="4" stroke-linecap="round" stroke-linejoin="round" opacity="1" fill="none"></path><path d="M526.5 1035L526.4 1034.7C524.6 1024.2 523.2 1013.4 522.5 1002.7V1002.3H570C570 1002.3 568.4 988.8 568.4 988.3 568.4 980.9 574.5 974.8 581.9 974.8H612V975.2C612.5 987.4 615.2 996 620.2 1001.7 626.2 1008.3 633 1014.3 640.3 1019.5 647 1024.5 652.3 1028.7 655.6 1034.4L526.5 1035Z" fill="#ffffff" opacity="1" stroke-width="4" stroke="none"></path><path d="M529.5 1050.4L526.3 1033.8 655.5 1034.2C655.5 1034.2 659.8 1039.4 659.5 1046.2 659.5 1047.3 659.1 1050.6 659.1 1050.6L529.5 1050.4Z" fill="#636363" opacity="1" stroke-width="4" stroke="none"></path><path d="M550.2 639C543.6 639 537.2 636.3 532.6 631.5 518.4 617.3 518.2 586.3 518.2 585V584.6H575V585C575.4 587.1 579.8 617.3 567.8 631.3 563.8 636.4 558 639 550.6 639H550.2Z" fill="#91005c" opacity="1" stroke-width="4" stroke="none"></path><path d="M453 638.7V638.3C454 617.4 457.1 600.5 462.6 585.1L462.8 584.7H489.8V585.1C489.8 586.4 489.7 617.3 475.4 631.6 470.8 636.2 464.5 638.9 458 638.9L453 638.7Z" fill="#91005c" opacity="1" stroke-width="4" stroke="none"></path><path d="M478.7 1001.7L466.2 1008.8" stroke="#636363" stroke-width="4" stroke-linecap="round" stroke-linejoin="round" opacity="1" fill="none"></path><path d="M484.8 1008.8L478.7 1017.1" stroke="#636363" stroke-width="4" stroke-linecap="round" stroke-linejoin="round" opacity="1" fill="none"></path><path d="M620.8 1002.8L608.4 1009.9" stroke="#636363" stroke-width="4" stroke-linecap="round" stroke-linejoin="round" opacity="1" fill="none"></path><path d="M627.7 1009.4L621.6 1017.7" stroke="#636363" stroke-width="4" stroke-linecap="round" stroke-linejoin="round" opacity="1" fill="none"></path><path d="M607.3 503.4L597.1 483.3" stroke="#519cbf" stroke-width="4" stroke-linecap="round" stroke-linejoin="round" opacity="1" fill="none"></path><path d="M485.8 543L476.6 479.3" stroke="#519cbf" stroke-width="4" stroke-linecap="round" stroke-linejoin="round" opacity="1" fill="none"></path><path d="M681.7 468.8L676.7 479.8" stroke="#519cbf" stroke-width="4" stroke-linecap="round" stroke-linejoin="round" opacity="1" fill="none"></path><path d="M600.5 284.1C602.1 284.1 603.4 285.4 603.4 287 603.4 288.6 602.1 289.9 600.5 289.9 598.9 289.9 597.6 288.6 597.6 287 597.6 285.4 598.9 284.1 600.5 284.1Z" fill="#231f20" opacity="1" stroke-width="4" stroke="none"></path><path d="M594.1 304.5C595.8 307.3 598.7 309.1 602 309.2" stroke="#030202" stroke-width="4" stroke-linecap="round" stroke-linejoin="round" opacity="1" fill="none"></path><path d="M562.2 338.8C566.1 341 570.3 342.7 574.6 343.9" stroke="#030202" stroke-width="4" stroke-linecap="round" stroke-linejoin="round" opacity="1" fill="none"></path><path d="M794.4 444.4C798.6 444.4 802.7 444.4 808.8 444.6" stroke="#030202" stroke-width="4" stroke-linecap="round" stroke-linejoin="round" opacity="1" fill="none"></path><path d="M840.7 459.1C840.7 459.1 825.3 453.4 782.1 456.7" stroke="#030202" stroke-width="4" stroke-linecap="round" stroke-linejoin="round" opacity="1" fill="none"></path><path d="M838.6 471.9C831.5 470.3 814.8 467.7 784.2 470" stroke="#030202" stroke-width="4" stroke-linecap="round" stroke-linejoin="round" opacity="1" fill="none"></path><path d="M511 359.3H522.2" stroke="#519cbf" stroke-width="4" stroke-linecap="round" stroke-linejoin="round" opacity="1" fill="none"></path><path d="M431.8 1001.9L438.4 1034.6" stroke="#636363" stroke-width="4" stroke-linecap="round" stroke-linejoin="round" opacity="1" fill="none"></path><path d="M570 1002.3L577.7 1034.6" stroke="#636363" stroke-width="4" stroke-linecap="round" stroke-linejoin="round" opacity="1" fill="none"></path><path d="M548.1 301.4L555.3 308" stroke="#030202" stroke-width="4" stroke-linecap="round" stroke-linejoin="round" opacity="1" fill="none"></path><path d="M516.3 334.9C512.6 334.9 510.1 334.5 510.1 334.5 507.3 334.1 504.7 333 502.5 331.2 499.2 328.6 497.1 324.8 496.6 320.6 496.1 316.5 497.2 312.4 495.93 309.86 494.3 307.5 490 303.1 488.6 297.6 487.6 293.4 488.2 289.1 490.4 285.4 492.5 281.9 500.88 278.69 499.7 278.2 493.8 275.7 489.8 269.9 489.8 263.4 489.8 254.6 497 247.4 505.8 247.4 506.5 247.27 503.8 241.9 503.8 239 503.8 228.7 512.2 220.4 522.5 220.4H522.6C526.7 220.4 530.7 221.8 534 224.3 534.99 225.25 537.3 215.5 541.3 213 543.9 211.4 546.8 210.5 549.8 210.5 555.3 210.5 560.2 213.2 563.2 217.7 564.18 219.67 569.3 211.9 573.5 211.1 574.4 210.9 575.4 210.8 576.4 210.8 584.1 210.8 590.6 216.2 592.1 223.7 592.26 226.5 596.7 222.4 599 222.4 609.3 222.4 617.7 230.8 617.7 241.1 617.7 251.1 609.6 259.4 599.5 258.39 596.28 258.38 600.86 267.1 598.07 273.1 596.3 277 590.6 280.6 584.5 280.6 582.2 280.6 580 280.1 580.16 280.45 578.4 285.9 574.68 295.46 570.5 295.69H570.06L567.48 293.88C565.49 292.45 555.3 283.4 544.6 283.4 539.3 283.4 535.2 285.9 532.3 290.7 523.3 305.5 542.47 322.6 543.95 323.98L544.34 324.3 545.48 325.33C548.33 328.17 523.8 334.9 516.3 334.9Z" fill="#231f20" opacity="1" stroke-width="4" stroke="none"></path></g></svg>